{
	"asset":{
		"generator":"Khronos glTF Blender I/O v3.6.27",
		"version":"2.0"
	},
	"extensionsUsed":[
		"KHR_materials_specular",
		"KHR_materials_ior"
	],
	"scene":0,
	"scenes":[
		{
			"name":"Scene",
			"nodes":[
				0,
				1
			]
		}
	],
	"nodes":[
		{
			"mesh":0,
			"name":"torch_fire",
			"scale":[
				0.02539999969303608,
				0.02539999969303608,
				0.02539999969303608
			],
			"translation":[
				0.014433943666517735,
				1.5338191986083984,
				-0.0006546836229972541
			]
		},
		{
			"mesh":1,
			"name":"torch",
			"scale":[
				0.02539999969303608,
				0.02539999969303608,
				0.02539999969303608
			],
			"translation":[
				0.014433943666517735,
				0.0031049703247845173,
				-0.0006546836229972541
			]
		}
	],
	"materials":[
		{
			"doubleSided":true,
			"extensions":{
				"KHR_materials_specular":{
					"specularColorFactor":[
						2.371357614441398,
						2.371357614441398,
						2.371357614441398
					]
				},
				"KHR_materials_ior":{
					"ior":1.4500000476837158
				}
			},
			"name":"torch_fire",
			"pbrMetallicRoughness":{
				"roughnessFactor":0.8964735269546509
			}
		},
		{
			"doubleSided":true,
			"extensions":{
				"KHR_materials_specular":{
					"specularColorFactor":[
						2.371357614441398,
						2.371357614441398,
						2.371357614441398
					]
				},
				"KHR_materials_ior":{
					"ior":1.4500000476837158
				}
			},
			"name":"torch",
			"pbrMetallicRoughness":{
				"roughnessFactor":0.8964735269546509
			}
		}
	],
	"meshes":[
		{
			"name":"Mesh",
			"primitives":[
				{
					"attributes":{
						"COLOR_0":0,
						"POSITION":1,
						"NORMAL":2
					},
					"indices":3,
					"material":0
				}
			]
		},
		{
			"name":"Mesh.001",
			"primitives":[
				{
					"attributes":{
						"COLOR_0":4,
						"POSITION":5,
						"NORMAL":6
					},
					"indices":7,
					"material":1
				}
			]
		}
	],
	"accessors":[
		{
			"bufferView":0,
			"componentType":5123,
			"count":150,
			"normalized":true,
			"type":"VEC4"
		},
		{
			"bufferView":1,
			"componentType":5126,
			"count":150,
			"max":[
				6.682733535766602,
				32.16233444213867,
				7.1524763107299805
			],
			"min":[
				-7.7129435539245605,
				1.487532377243042,
				-7.043796539306641
			],
			"type":"VEC3"
		},
		{
			"bufferView":2,
			"componentType":5126,
			"count":150,
			"type":"VEC3"
		},
		{
			"bufferView":3,
			"componentType":5123,
			"count":150,
			"type":"SCALAR"
		},
		{
			"bufferView":4,
			"componentType":5123,
			"count":1794,
			"normalized":true,
			"type":"VEC4"
		},
		{
			"bufferView":5,
			"componentType":5126,
			"count":1794,
			"max":[
				12.232349395751953,
				77.34083557128906,
				12.232352256774902
			],
			"min":[
				-13.598162651062012,
				0.2908592224121094,
				-12.232346534729004
			],
			"type":"VEC3"
		},
		{
			"bufferView":6,
			"componentType":5126,
			"count":1794,
			"type":"VEC3"
		},
		{
			"bufferView":7,
			"componentType":5123,
			"count":2880,
			"type":"SCALAR"
		}
	],
	"bufferViews":[
		{
			"buffer":0,
			"byteLength":1200,
			"byteOffset":0,
			"target":34962
		},
		{
			"buffer":0,
			"byteLength":1800,
			"byteOffset":1200,
			"target":34962
		},
		{
			"buffer":0,
			"byteLength":1800,
			"byteOffset":3000,
			"target":34962
		},
		{
			"buffer":0,
			"byteLength":300,
			"byteOffset":4800,
			"target":34963
		},
		{
			"buffer":0,
			"byteLength":14352,
			"byteOffset":5100,
			"target":34962
		},
		{
			"buffer":0,
			"byteLength":21528,
			"byteOffset":19452,
			"target":34962
		},
		{
			"buffer":0,
			"byteLength":21528,
			"byteOffset":40980,
			"target":34962
		},
		{
			"buffer":0,
			"byteLength":5760,
			"byteOffset":62508,
			"target":34963
		}
	],
	"buffers":[
		{
			"byteLength":68268,
			"uri":"torch.bin"
		}
	]
}
