{
	"asset":{
		"generator":"Khronos glTF Blender I/O v3.6.27",
		"version":"2.0"
	},
	"extensionsUsed":[
		"KHR_materials_specular",
		"KHR_materials_ior"
	],
	"scene":0,
	"scenes":[
		{
			"name":"Scene",
			"nodes":[
				0,
				1
			]
		}
	],
	"nodes":[
		{
			"mesh":0,
			"name":"lamp2",
			"rotation":[
				0.7071068286895752,
				0,
				0,
				0.7071068286895752
			],
			"scale":[
				0.06804999709129333,
				0.06804999709129333,
				0.06804999709129333
			]
		},
		{
			"mesh":1,
			"name":"lamp2_light",
			"rotation":[
				0.7071068286895752,
				0,
				0,
				0.7071068286895752
			],
			"scale":[
				0.06804999709129333,
				0.06804999709129333,
				0.06804999709129333
			]
		}
	],
	"materials":[
		{
			"doubleSided":true,
			"extensions":{
				"KHR_materials_specular":{
					"specularColorFactor":[
						2.371357614441398,
						2.371357614441398,
						2.371357614441398
					]
				},
				"KHR_materials_ior":{
					"ior":1.4500000476837158
				}
			},
			"name":"lamp2",
			"pbrMetallicRoughness":{
				"roughnessFactor":0.8964735269546509
			}
		}
	],
	"meshes":[
		{
			"name":"Mesh.001",
			"primitives":[
				{
					"attributes":{
						"COLOR_0":0,
						"POSITION":1,
						"NORMAL":2
					},
					"indices":3,
					"material":0
				}
			]
		},
		{
			"name":"Mesh.004",
			"primitives":[
				{
					"attributes":{
						"COLOR_0":4,
						"POSITION":5,
						"NORMAL":6
					},
					"indices":7,
					"material":0
				}
			]
		}
	],
	"accessors":[
		{
			"bufferView":0,
			"componentType":5123,
			"count":2306,
			"normalized":true,
			"type":"VEC4"
		},
		{
			"bufferView":1,
			"componentType":5126,
			"count":2306,
			"max":[
				4.668440818786621,
				4.668440818786621,
				-4.5486860275268555
			],
			"min":[
				-4.668440818786621,
				-11.25295639038086,
				-33.152400970458984
			],
			"type":"VEC3"
		},
		{
			"bufferView":2,
			"componentType":5126,
			"count":2306,
			"type":"VEC3"
		},
		{
			"bufferView":3,
			"componentType":5123,
			"count":3750,
			"type":"SCALAR"
		},
		{
			"bufferView":4,
			"componentType":5123,
			"count":64,
			"normalized":true,
			"type":"VEC4"
		},
		{
			"bufferView":5,
			"componentType":5126,
			"count":64,
			"max":[
				3.405221700668335,
				3.175049066543579,
				-8.44140625
			],
			"min":[
				-3.405221700668335,
				-3.175049066543579,
				-16.896459579467773
			],
			"type":"VEC3"
		},
		{
			"bufferView":6,
			"componentType":5126,
			"count":64,
			"type":"VEC3"
		},
		{
			"bufferView":7,
			"componentType":5123,
			"count":96,
			"type":"SCALAR"
		}
	],
	"bufferViews":[
		{
			"buffer":0,
			"byteLength":18448,
			"byteOffset":0,
			"target":34962
		},
		{
			"buffer":0,
			"byteLength":27672,
			"byteOffset":18448,
			"target":34962
		},
		{
			"buffer":0,
			"byteLength":27672,
			"byteOffset":46120,
			"target":34962
		},
		{
			"buffer":0,
			"byteLength":7500,
			"byteOffset":73792,
			"target":34963
		},
		{
			"buffer":0,
			"byteLength":512,
			"byteOffset":81292,
			"target":34962
		},
		{
			"buffer":0,
			"byteLength":768,
			"byteOffset":81804,
			"target":34962
		},
		{
			"buffer":0,
			"byteLength":768,
			"byteOffset":82572,
			"target":34962
		},
		{
			"buffer":0,
			"byteLength":192,
			"byteOffset":83340,
			"target":34963
		}
	],
	"buffers":[
		{
			"byteLength":83532,
			"uri":"lamp2.bin"
		}
	]
}
