{
  "accessors": [
    {
      "bufferView": 2,
      "componentType": 5126,
      "count": 1703,
      "max": [
        4.240848541259766,
        1.6017900705337524,
        5.844196796417236
      ],
      "min": [
        -4.240848541259766,
        -1.8129408359527588,
        -5.991302490234375
      ],
      "type": "VEC3"
    },
    {
      "bufferView": 2,
      "byteOffset": 20436,
      "componentType": 5126,
      "count": 1703,
      "max": [
        1.0,
        0.9992203712463379,
        0.9988903403282166
      ],
      "min": [
        -1.0,
        -0.9997668862342834,
        -0.9993019700050354
      ],
      "type": "VEC3"
    },
    {
      "bufferView": 1,
      "componentType": 5126,
      "count": 1703,
      "max": [
        0.75,
        1.0
      ],
      "min": [
        0.0,
        0.0
      ],
      "type": "VEC2"
    },
    {
      "bufferView": 0,
      "componentType": 5125,
      "count": 6192,
      "type": "SCALAR"
    },
    {
      "bufferView": 2,
      "byteOffset": 40872,
      "componentType": 5126,
      "count": 5760,
      "max": [
        -0.05127638578414917,
        0.5772384405136108,
        3.8033580780029297
      ],
      "min": [
        -2.7497966289520264,
        -2.784776449203491,
        -0.15082132816314697
      ],
      "type": "VEC3"
    },
    {
      "bufferView": 2,
      "byteOffset": 109992,
      "componentType": 5126,
      "count": 5760,
      "max": [
        0.9992852210998535,
        0.999971866607666,
        0.9994179010391235
      ],
      "min": [
        -0.9994912147521973,
        -0.9999080896377563,
        -0.9992547035217285
      ],
      "type": "VEC3"
    },
    {
      "bufferView": 0,
      "byteOffset": 24768,
      "componentType": 5125,
      "count": 33708,
      "type": "SCALAR"
    },
    {
      "bufferView": 2,
      "byteOffset": 179112,
      "componentType": 5126,
      "count": 24,
      "max": [
        3.5891060829162598,
        0.7533172965049744,
        0.7131890654563904
      ],
      "min": [
        -3.5891060829162598,
        -1.245584487915039,
        -0.10156359523534775
      ],
      "type": "VEC3"
    },
    {
      "bufferView": 2,
      "byteOffset": 179400,
      "componentType": 5126,
      "count": 24,
      "max": [
        0.40724027156829834,
        0.010895855724811554,
        0.9132561683654785
      ],
      "min": [
        -0.4072403311729431,
        0.010895810090005398,
        0.9132561087608337
      ],
      "type": "VEC3"
    },
    {
      "bufferView": 1,
      "byteOffset": 13624,
      "componentType": 5126,
      "count": 24,
      "max": [
        0.0,
        0.0
      ],
      "min": [
        0.0,
        0.0
      ],
      "type": "VEC2"
    },
    {
      "bufferView": 0,
      "byteOffset": 159600,
      "componentType": 5125,
      "count": 60,
      "type": "SCALAR"
    }
  ],
  "asset": {
    "extras": {
      "author": "Diego T. Yamaguchi (https://sketchfab.com/freshlybaked)",
      "license": "CC-BY-4.0 (http://creativecommons.org/licenses/by/4.0/)",
      "source": "https://sketchfab.com/3d-models/darkling1-a9d489f685ff4b8a8574e12eb4cee7c5",
      "title": "Darkling1"
    },
    "generator": "Sketchfab-12.65.0",
    "version": "2.0"
  },
  "bufferViews": [
    {
      "buffer": 0,
      "byteLength": 159840,
      "name": "floatBufferViews",
      "target": 34963
    },
    {
      "buffer": 0,
      "byteLength": 13816,
      "byteOffset": 159840,
      "byteStride": 8,
      "name": "floatBufferViews",
      "target": 34962
    },
    {
      "buffer": 0,
      "byteLength": 179688,
      "byteOffset": 173656,
      "byteStride": 12,
      "name": "floatBufferViews",
      "target": 34962
    }
  ],
  "buffers": [
    {
      "byteLength": 353344,
      "uri": "scene.bin"
    }
  ],
  "materials": [
    {
      "doubleSided": true,
      "name": "black",
      "pbrMetallicRoughness": {
        "baseColorFactor": [
          0.0,
          0.0,
          0.0,
          1.0
        ],
        "metallicFactor": 0.0
      }
    },
    {
      "doubleSided": true,
      "emissiveFactor": [
        1.0,
        1.0,
        0.10505163618334745
      ],
      "name": "yellow",
      "pbrMetallicRoughness": {
        "baseColorFactor": [
          0.9213560469775335,
          1.0,
          0.0,
          1.0
        ],
        "metallicFactor": 0.0
      }
    }
  ],
  "meshes": [
    {
      "name": "body_black_0",
      "primitives": [
        {
          "attributes": {
            "NORMAL": 1,
            "POSITION": 0,
            "TEXCOORD_0": 2
          },
          "indices": 3,
          "material": 0,
          "mode": 4
        }
      ]
    },
    {
      "name": "tail_black_0",
      "primitives": [
        {
          "attributes": {
            "NORMAL": 5,
            "POSITION": 4
          },
          "indices": 6,
          "material": 0,
          "mode": 4
        }
      ]
    },
    {
      "name": "eyes_yellow_0",
      "primitives": [
        {
          "attributes": {
            "NORMAL": 8,
            "POSITION": 7,
            "TEXCOORD_0": 9
          },
          "indices": 10,
          "material": 1,
          "mode": 4
        }
      ]
    }
  ],
  "nodes": [
    {
      "children": [
        1
      ],
      "matrix": [
        1.0,
        0.0,
        0.0,
        0.0,
        0.0,
        2.220446049250313e-16,
        -1.0,
        0.0,
        0.0,
        1.0,
        2.220446049250313e-16,
        0.0,
        0.0,
        0.0,
        0.0,
        1.0
      ],
      "name": "Sketchfab_model"
    },
    {
      "children": [
        2
      ],
      "matrix": [
        1.0,
        0.0,
        0.0,
        0.0,
        0.0,
        0.0,
        1.0,
        0.0,
        0.0,
        -1.0,
        0.0,
        0.0,
        0.0,
        0.0,
        0.0,
        1.0
      ],
      "name": "3ed50b0bbfd242ad80d0428584cf8251.fbx"
    },
    {
      "children": [
        3,
        5,
        7
      ],
      "name": "RootNode"
    },
    {
      "children": [
        4
      ],
      "matrix": [
        31.939311981201172,
        0.0,
        0.0,
        0.0,
        0.0,
        -5.203574407284956e-06,
        -31.93931198120075,
        0.0,
        0.0,
        31.93931198120075,
        -5.203574407284956e-06,
        0.0,
        0.5986630916595459,
        212.5283203125,
        4.3347736209398136e-05,
        1.0
      ],
      "name": "body"
    },
    {
      "mesh": 0,
      "name": "body_black_0"
    },
    {
      "children": [
        6
      ],
      "matrix": [
        -16.99988882068234,
        -4.623417534238561e-15,
        -38.01618201328924,
        0.0,
        -38.0161820132892,
        -1.8203189875176402e-06,
        16.99988882068233,
        0.0,
        -1.66174014909308e-06,
        41.644042968749964,
        7.430887596212785e-07,
        0.0,
        -37.62345886230469,
        153.07765197753906,
        -104.08163452148438,
        1.0
      ],
      "name": "tail"
    },
    {
      "mesh": 1,
      "name": "tail_black_0"
    },
    {
      "children": [
        8
      ],
      "matrix": [
        7.863631912056558,
        -0.2592707405440684,
        0.12545435515324724,
        0.0,
        0.27745509936711027,
        7.738781893002983,
        -1.397839565026704,
        0.0,
        -0.07732268683458579,
        1.4013260628931692,
        7.7427363330819965,
        0.0,
        3.557251446057179e-16,
        317.0636901855469,
        30.31397819519043,
        1.0
      ],
      "name": "eyes"
    },
    {
      "mesh": 2,
      "name": "eyes_yellow_0"
    }
  ],
  "scene": 0,
  "scenes": [
    {
      "name": "Sketchfab_Scene",
      "nodes": [
        0
      ]
    }
  ]
}
