{
	"asset":{
		"generator":"Khronos glTF Blender I/O v3.6.27",
		"version":"2.0"
	},
	"extensionsUsed":[
		"KHR_materials_specular",
		"KHR_materials_ior"
	],
	"scene":0,
	"scenes":[
		{
			"name":"Scene",
			"nodes":[
				0
			]
		}
	],
	"nodes":[
		{
			"mesh":0,
			"name":"lamp1",
			"rotation":[
				0.7071068286895752,
				0,
				0,
				0.7071068286895752
			],
			"scale":[
				0.06804999709129333,
				0.06804999709129333,
				0.06804999709129333
			]
		}
	],
	"materials":[
		{
			"doubleSided":true,
			"extensions":{
				"KHR_materials_specular":{
					"specularColorFactor":[
						2.371357614441398,
						2.371357614441398,
						2.371357614441398
					]
				},
				"KHR_materials_ior":{
					"ior":1.4500000476837158
				}
			},
			"name":"lamp1",
			"pbrMetallicRoughness":{
				"roughnessFactor":0.8964735269546509
			}
		}
	],
	"meshes":[
		{
			"name":"Mesh",
			"primitives":[
				{
					"attributes":{
						"COLOR_0":0,
						"POSITION":1,
						"NORMAL":2
					},
					"indices":3,
					"material":0
				}
			]
		}
	],
	"accessors":[
		{
			"bufferView":0,
			"componentType":5123,
			"count":2015,
			"normalized":true,
			"type":"VEC4"
		},
		{
			"bufferView":1,
			"componentType":5126,
			"count":2015,
			"max":[
				3.6467316150665283,
				3.6467316150665283,
				-6.556081771850586
			],
			"min":[
				-3.6467316150665283,
				-8.98399543762207,
				-27.648710250854492
			],
			"type":"VEC3"
		},
		{
			"bufferView":2,
			"componentType":5126,
			"count":2015,
			"type":"VEC3"
		},
		{
			"bufferView":3,
			"componentType":5123,
			"count":3348,
			"type":"SCALAR"
		}
	],
	"bufferViews":[
		{
			"buffer":0,
			"byteLength":16120,
			"byteOffset":0,
			"target":34962
		},
		{
			"buffer":0,
			"byteLength":24180,
			"byteOffset":16120,
			"target":34962
		},
		{
			"buffer":0,
			"byteLength":24180,
			"byteOffset":40300,
			"target":34962
		},
		{
			"buffer":0,
			"byteLength":6696,
			"byteOffset":64480,
			"target":34963
		}
	],
	"buffers":[
		{
			"byteLength":71176,
			"uri":"lamp1.bin"
		}
	]
}
