{
	"asset":{
		"generator":"Khronos glTF Blender I/O v3.6.27",
		"version":"2.0"
	},
	"extensionsUsed":[
		"KHR_materials_specular",
		"KHR_materials_ior"
	],
	"scene":0,
	"scenes":[
		{
			"name":"Scene",
			"nodes":[
				0
			]
		}
	],
	"nodes":[
		{
			"mesh":0,
			"name":"lamp3",
			"scale":[
				0.02539999969303608,
				0.02539999969303608,
				0.02539999969303608
			]
		}
	],
	"materials":[
		{
			"doubleSided":true,
			"extensions":{
				"KHR_materials_specular":{
					"specularColorFactor":[
						2.371357614441398,
						2.371357614441398,
						2.371357614441398
					]
				},
				"KHR_materials_ior":{
					"ior":1.4500000476837158
				}
			},
			"name":"lamp3",
			"pbrMetallicRoughness":{
				"roughnessFactor":0.8964735269546509
			}
		}
	],
	"meshes":[
		{
			"name":"Mesh",
			"primitives":[
				{
					"attributes":{
						"COLOR_0":0,
						"POSITION":1,
						"NORMAL":2
					},
					"indices":3,
					"material":0
				}
			]
		}
	],
	"accessors":[
		{
			"bufferView":0,
			"componentType":5123,
			"count":14497,
			"normalized":true,
			"type":"VEC4"
		},
		{
			"bufferView":1,
			"componentType":5126,
			"count":14497,
			"max":[
				87.70022583007812,
				187.53103637695312,
				87.70023345947266
			],
			"min":[
				-87.70023345947266,
				0,
				-87.70023345947266
			],
			"type":"VEC3"
		},
		{
			"bufferView":2,
			"componentType":5126,
			"count":14497,
			"type":"VEC3"
		},
		{
			"bufferView":3,
			"componentType":5123,
			"count":17760,
			"type":"SCALAR"
		}
	],
	"bufferViews":[
		{
			"buffer":0,
			"byteLength":115976,
			"byteOffset":0,
			"target":34962
		},
		{
			"buffer":0,
			"byteLength":173964,
			"byteOffset":115976,
			"target":34962
		},
		{
			"buffer":0,
			"byteLength":173964,
			"byteOffset":289940,
			"target":34962
		},
		{
			"buffer":0,
			"byteLength":35520,
			"byteOffset":463904,
			"target":34963
		}
	],
	"buffers":[
		{
			"byteLength":499424,
			"uri":"lampa3.bin"
		}
	]
}
