{
  "accessors": [
    {
      "bufferView": 2,
      "componentType": 5126,
      "count": 720,
      "max": [
        3.3791885375976563,
        1.0686402320861816,
        1.2415660619735718
      ],
      "min": [
        -7.287720680236816,
        -1.068644404411316,
        -2.3023924827575684
      ],
      "type": "VEC3"
    },
    {
      "bufferView": 2,
      "byteOffset": 8640,
      "componentType": 5126,
      "count": 720,
      "max": [
        0.9905337691307068,
        0.9753836393356323,
        0.9999953508377075
      ],
      "min": [
        -0.9890426993370056,
        -0.975516140460968,
        -0.999999463558197
      ],
      "type": "VEC3"
    },
    {
      "bufferView": 1,
      "componentType": 5126,
      "count": 720,
      "max": [
        1.0,
        1.0
      ],
      "min": [
        -7.450580596923828e-08,
        0.0
      ],
      "type": "VEC2"
    },
    {
      "bufferView": 0,
      "componentType": 5125,
      "count": 1080,
      "type": "SCALAR"
    },
    {
      "bufferView": 2,
      "byteOffset": 17280,
      "componentType": 5126,
      "count": 280,
      "max": [
        0.7887181043624878,
        1.1135838031768799,
        -0.8931484222412109
      ],
      "min": [
        -1.3027598857879639,
        -1.1135814189910889,
        -1.332456350326538
      ],
      "type": "VEC3"
    },
    {
      "bufferView": 2,
      "byteOffset": 20640,
      "componentType": 5126,
      "count": 280,
      "max": [
        0.984420895576477,
        0.9483442902565002,
        0.9999449849128723
      ],
      "min": [
        -0.9021440744400024,
        -0.9483441114425659,
        -0.9999911189079285
      ],
      "type": "VEC3"
    },
    {
      "bufferView": 1,
      "byteOffset": 5760,
      "componentType": 5126,
      "count": 280,
      "max": [
        1.0,
        0.7319992780685425
      ],
      "min": [
        -7.450580596923828e-08,
        0.692964494228363
      ],
      "type": "VEC2"
    },
    {
      "bufferView": 0,
      "byteOffset": 4320,
      "componentType": 5125,
      "count": 420,
      "type": "SCALAR"
    },
    {
      "bufferView": 2,
      "byteOffset": 24000,
      "componentType": 5126,
      "count": 200,
      "max": [
        0.7824310064315796,
        1.1135838031768799,
        -0.9747875928878784
      ],
      "min": [
        -1.3027598857879639,
        -1.1135814189910889,
        -1.3298202753067017
      ],
      "type": "VEC3"
    },
    {
      "bufferView": 2,
      "byteOffset": 26400,
      "componentType": 5126,
      "count": 200,
      "max": [
        0.9989628791809082,
        0.9897727966308594,
        0.9999250173568726
      ],
      "min": [
        -0.9764823317527771,
        -0.9897729754447937,
        -0.9999436140060425
      ],
      "type": "VEC3"
    },
    {
      "bufferView": 1,
      "byteOffset": 8000,
      "componentType": 5126,
      "count": 200,
      "max": [
        1.0,
        0.7288272380828857
      ],
      "min": [
        -7.450580596923828e-08,
        0.692964494228363
      ],
      "type": "VEC2"
    },
    {
      "bufferView": 0,
      "byteOffset": 6000,
      "componentType": 5125,
      "count": 300,
      "type": "SCALAR"
    },
    {
      "bufferView": 2,
      "byteOffset": 28800,
      "componentType": 5126,
      "count": 90,
      "max": [
        0.9510565400123596,
        1.0,
        1.934612512588501
      ],
      "min": [
        -0.9510564804077148,
        -1.0,
        0.4729430079460144
      ],
      "type": "VEC3"
    },
    {
      "bufferView": 2,
      "byteOffset": 29880,
      "componentType": 5126,
      "count": 90,
      "max": [
        1.0,
        0.9510565996170044,
        0.5319530367851257
      ],
      "min": [
        -1.0,
        -0.9510565996170044,
        -1.0
      ],
      "type": "VEC3"
    },
    {
      "bufferView": 1,
      "byteOffset": 9600,
      "componentType": 5126,
      "count": 90,
      "max": [
        1.0,
        1.0
      ],
      "min": [
        -7.450580596923828e-08,
        0.01000000536441803
      ],
      "type": "VEC2"
    },
    {
      "bufferView": 0,
      "byteOffset": 7200,
      "componentType": 5125,
      "count": 144,
      "type": "SCALAR"
    },
    {
      "bufferView": 2,
      "byteOffset": 30960,
      "componentType": 5126,
      "count": 50,
      "max": [
        0.878275990486145,
        0.9234748482704163,
        1.934612512588501
      ],
      "min": [
        -0.8782759308815002,
        -0.9234748482704163,
        0.5373126268386841
      ],
      "type": "VEC3"
    },
    {
      "bufferView": 2,
      "byteOffset": 31560,
      "componentType": 5126,
      "count": 50,
      "max": [
        0.999514102935791,
        0.9567441344261169,
        1.0
      ],
      "min": [
        -0.999514102935791,
        -0.9444458484649658,
        -0.02399490959942341
      ],
      "type": "VEC3"
    },
    {
      "bufferView": 1,
      "byteOffset": 10320,
      "componentType": 5126,
      "count": 50,
      "max": [
        1.0,
        1.0
      ],
      "min": [
        -7.450580596923828e-08,
        0.01000000536441803
      ],
      "type": "VEC2"
    },
    {
      "bufferView": 0,
      "byteOffset": 7776,
      "componentType": 5125,
      "count": 84,
      "type": "SCALAR"
    },
    {
      "bufferView": 2,
      "byteOffset": 32160,
      "componentType": 5126,
      "count": 28,
      "max": [
        1.0,
        1.0,
        2.1690030097961426
      ],
      "min": [
        -1.0,
        -1.0,
        -2.1690030097961426
      ],
      "type": "VEC3"
    },
    {
      "bufferView": 2,
      "byteOffset": 32496,
      "componentType": 5126,
      "count": 28,
      "max": [
        0.6722837090492249,
        0.6722837090492249,
        1.0
      ],
      "min": [
        -0.6722837090492249,
        -0.6722837090492249,
        -0.3099505603313446
      ],
      "type": "VEC3"
    },
    {
      "bufferView": 1,
      "byteOffset": 10720,
      "componentType": 5126,
      "count": 28,
      "max": [
        0.9900000095367432,
        0.49000000953674316
      ],
      "min": [
        0.01000000536441803,
        0.01000000536441803
      ],
      "type": "VEC2"
    },
    {
      "bufferView": 0,
      "byteOffset": 8112,
      "componentType": 5125,
      "count": 30,
      "type": "SCALAR"
    },
    {
      "bufferView": 2,
      "byteOffset": 32832,
      "componentType": 5126,
      "count": 28,
      "max": [
        1.0,
        1.0,
        2.1690030097961426
      ],
      "min": [
        -1.0,
        -1.0,
        -2.1690030097961426
      ],
      "type": "VEC3"
    },
    {
      "bufferView": 2,
      "byteOffset": 33168,
      "componentType": 5126,
      "count": 28,
      "max": [
        0.6722837090492249,
        0.6722837090492249,
        1.0
      ],
      "min": [
        -0.6722837090492249,
        -0.6722837090492249,
        -0.3099505603313446
      ],
      "type": "VEC3"
    },
    {
      "bufferView": 1,
      "byteOffset": 10944,
      "componentType": 5126,
      "count": 28,
      "max": [
        0.9900000095367432,
        0.49000000953674316
      ],
      "min": [
        0.01000000536441803,
        0.01000000536441803
      ],
      "type": "VEC2"
    },
    {
      "bufferView": 0,
      "byteOffset": 8232,
      "componentType": 5125,
      "count": 30,
      "type": "SCALAR"
    },
    {
      "bufferView": 2,
      "byteOffset": 33504,
      "componentType": 5126,
      "count": 28,
      "max": [
        1.0,
        1.0,
        2.1690030097961426
      ],
      "min": [
        -1.0,
        -1.0,
        -2.1690030097961426
      ],
      "type": "VEC3"
    },
    {
      "bufferView": 2,
      "byteOffset": 33840,
      "componentType": 5126,
      "count": 28,
      "max": [
        0.6722837090492249,
        0.6722837090492249,
        1.0
      ],
      "min": [
        -0.6722837090492249,
        -0.6722837090492249,
        -0.3099505603313446
      ],
      "type": "VEC3"
    },
    {
      "bufferView": 1,
      "byteOffset": 11168,
      "componentType": 5126,
      "count": 28,
      "max": [
        0.9900000095367432,
        0.49000000953674316
      ],
      "min": [
        0.01000000536441803,
        0.01000000536441803
      ],
      "type": "VEC2"
    },
    {
      "bufferView": 0,
      "byteOffset": 8352,
      "componentType": 5125,
      "count": 30,
      "type": "SCALAR"
    }
  ],
  "asset": {
    "extras": {
      "author": "Diego T. Yamaguchi (https://sketchfab.com/freshlybaked)",
      "license": "CC-BY-4.0 (http://creativecommons.org/licenses/by/4.0/)",
      "source": "https://sketchfab.com/3d-models/staff-02491280b0a842418251b397241f6bdb",
      "title": "Staff"
    },
    "generator": "Sketchfab-12.65.0",
    "version": "2.0"
  },
  "bufferViews": [
    {
      "buffer": 0,
      "byteLength": 8472,
      "name": "floatBufferViews",
      "target": 34963
    },
    {
      "buffer": 0,
      "byteLength": 11392,
      "byteOffset": 8472,
      "byteStride": 8,
      "name": "floatBufferViews",
      "target": 34962
    },
    {
      "buffer": 0,
      "byteLength": 34176,
      "byteOffset": 19864,
      "byteStride": 12,
      "name": "floatBufferViews",
      "target": 34962
    }
  ],
  "buffers": [
    {
      "byteLength": 54040,
      "uri": "scene.bin"
    }
  ],
  "materials": [
    {
      "doubleSided": true,
      "name": "wood",
      "pbrMetallicRoughness": {
        "baseColorFactor": [
          0.4530459196144188,
          0.29833624084325966,
          0.16674618712309594,
          1.0
        ],
        "metallicFactor": 0.0
      }
    },
    {
      "doubleSided": true,
      "name": "white-darker",
      "pbrMetallicRoughness": {
        "baseColorFactor": [
          0.367235,
          0.367235,
          0.367235,
          1.0
        ],
        "metallicFactor": 0.0,
        "roughnessFactor": 0.9178837576
      }
    },
    {
      "doubleSided": true,
      "name": "white",
      "pbrMetallicRoughness": {
        "baseColorFactor": [
          0.8,
          0.8,
          0.8,
          1.0
        ],
        "metallicFactor": 0.0,
        "roughnessFactor": 0.8211145618
      }
    },
    {
      "doubleSided": true,
      "name": "crown",
      "pbrMetallicRoughness": {
        "baseColorFactor": [
          1.0,
          0.9798103222526446,
          0.20996847096663532,
          1.0
        ],
        "metallicFactor": 0.0,
        "roughnessFactor": 0.780910977
      }
    },
    {
      "doubleSided": true,
      "name": "crown-darker",
      "pbrMetallicRoughness": {
        "baseColorFactor": [
          0.24771476992775635,
          0.27592356247286554,
          0.11311533689932166,
          1.0
        ],
        "metallicFactor": 0.0,
        "roughnessFactor": 0.780910977
      }
    },
    {
      "doubleSided": true,
      "emissiveFactor": [
        1.0,
        1.0,
        1.0
      ],
      "name": "material",
      "pbrMetallicRoughness": {
        "baseColorFactor": [
          0.8,
          0.8,
          0.8,
          1.0
        ],
        "metallicFactor": 0.0,
        "roughnessFactor": 0.780910977
      }
    }
  ],
  "meshes": [
    {
      "name": "staff_wood_0",
      "primitives": [
        {
          "attributes": {
            "NORMAL": 1,
            "POSITION": 0,
            "TEXCOORD_0": 2
          },
          "indices": 3,
          "material": 0,
          "mode": 4
        }
      ]
    },
    {
      "name": "staff_white-darker_0",
      "primitives": [
        {
          "attributes": {
            "NORMAL": 5,
            "POSITION": 4,
            "TEXCOORD_0": 6
          },
          "indices": 7,
          "material": 1,
          "mode": 4
        }
      ]
    },
    {
      "name": "staff_white_0",
      "primitives": [
        {
          "attributes": {
            "NORMAL": 9,
            "POSITION": 8,
            "TEXCOORD_0": 10
          },
          "indices": 11,
          "material": 2,
          "mode": 4
        }
      ]
    },
    {
      "name": "crown_crown_0",
      "primitives": [
        {
          "attributes": {
            "NORMAL": 13,
            "POSITION": 12,
            "TEXCOORD_0": 14
          },
          "indices": 15,
          "material": 3,
          "mode": 4
        }
      ]
    },
    {
      "name": "crown_crown-darker_0",
      "primitives": [
        {
          "attributes": {
            "NORMAL": 17,
            "POSITION": 16,
            "TEXCOORD_0": 18
          },
          "indices": 19,
          "material": 4,
          "mode": 4
        }
      ]
    },
    {
      "name": "crown-gem-left_gem_0",
      "primitives": [
        {
          "attributes": {
            "NORMAL": 21,
            "POSITION": 20,
            "TEXCOORD_0": 22
          },
          "indices": 23,
          "material": 5,
          "mode": 4
        }
      ]
    },
    {
      "name": "crown-gem-right_gem_0",
      "primitives": [
        {
          "attributes": {
            "NORMAL": 25,
            "POSITION": 24,
            "TEXCOORD_0": 26
          },
          "indices": 27,
          "material": 5,
          "mode": 4
        }
      ]
    },
    {
      "name": "gem-bottom_gem_0",
      "primitives": [
        {
          "attributes": {
            "NORMAL": 29,
            "POSITION": 28,
            "TEXCOORD_0": 30
          },
          "indices": 31,
          "material": 5,
          "mode": 4
        }
      ]
    }
  ],
  "nodes": [
    {
      "children": [
        1
      ],
      "matrix": [
        0.5196263790130615,
        -0.8543936014175415,
        -1.8971348967723267e-16,
        0.0,
        0.0,
        2.220446049250313e-16,
        -1.0,
        0.0,
        0.8543936014175415,
        0.5196263790130615,
        1.1538023403657983e-16,
        0.0,
        -4136.7412109375,
        1919.0693359375,
        4.2611899252198437e-13,
        1.0
      ],
      "name": "Sketchfab_model"
    },
    {
      "children": [
        2
      ],
      "matrix": [
        1.0,
        0.0,
        0.0,
        0.0,
        0.0,
        0.0,
        1.0,
        0.0,
        0.0,
        -1.0,
        0.0,
        0.0,
        0.0,
        0.0,
        0.0,
        1.0
      ],
      "name": "154dc7f7d1914fcf8ab76d700ab59bcd.fbx"
    },
    {
      "children": [
        3,
        7,
        10,
        12,
        14
      ],
      "name": "RootNode"
    },
    {
      "children": [
        4,
        5,
        6
      ],
      "matrix": [
        144.14251708984375,
        0.0,
        0.0,
        0.0,
        -0.0,
        -2.3483796813526014e-05,
        -144.14251708984185,
        0.0,
        0.0,
        2105.4099121093473,
        -0.00034301481327915544,
        0.0,
        -24.7729549407959,
        5774.388671875,
        6.938893903907228e-16,
        1.0
      ],
      "name": "staff"
    },
    {
      "mesh": 0,
      "name": "staff_wood_0"
    },
    {
      "mesh": 1,
      "name": "staff_white-darker_0"
    },
    {
      "mesh": 2,
      "name": "staff_white_0"
    },
    {
      "children": [
        8,
        9
      ],
      "matrix": [
        323.8521728515625,
        0.0,
        0.0,
        0.0,
        -0.0,
        -5.276221602349738e-05,
        -323.85217285155824,
        0.0,
        0.0,
        323.85217285155824,
        -5.276221602349738e-05,
        0.0,
        -377.6402893066406,
        8513.115234375,
        -0.3723345696926117,
        1.0
      ],
      "name": "crown"
    },
    {
      "mesh": 3,
      "name": "crown_crown_0"
    },
    {
      "mesh": 4,
      "name": "crown_crown-darker_0"
    },
    {
      "children": [
        11
      ],
      "matrix": [
        93.42842287324818,
        78.65109227945362,
        4.033442030184542,
        0.0,
        3.2671483275910633,
        2.381963266161301,
        -122.12609590186388,
        0.0,
        -78.68664396619785,
        93.48510049279184,
        -0.2816995145602148,
        0.0,
        -974.5337524414063,
        8866.6396484375,
        6.537784576416016,
        1.0
      ],
      "name": "crown-gem-left"
    },
    {
      "mesh": 5,
      "name": "crown-gem-left_gem_0"
    },
    {
      "children": [
        13
      ],
      "matrix": [
        91.7547466704342,
        -80.69817783788048,
        -7.228004746729701e-06,
        0.0,
        -1.857491437589383e-05,
        -1.01752590257957e-05,
        -122.19301605224427,
        0.0,
        80.69817783787866,
        91.75474667043393,
        -1.990776673332891e-05,
        0.0,
        227.3357696533203,
        8865.5703125,
        -1.1261433362960815,
        1.0
      ],
      "name": "crown-gem-right"
    },
    {
      "mesh": 6,
      "name": "crown-gem-right_gem_0"
    },
    {
      "children": [
        15
      ],
      "matrix": [
        146.60190714373005,
        0.6289338327317592,
        7.240841083016879e-08,
        0.0,
        9.989930614862477e-08,
        -6.407861849797212e-06,
        -146.60324096679676,
        0.0,
        -0.6289338327317554,
        146.60190714372993,
        -6.408232117396413e-06,
        0.0,
        -48.134525299072266,
        508.23516845703125,
        -1.6878005266189575,
        1.0
      ],
      "name": "gem-bottom"
    },
    {
      "mesh": 7,
      "name": "gem-bottom_gem_0"
    }
  ],
  "scene": 0,
  "scenes": [
    {
      "name": "Sketchfab_Scene",
      "nodes": [
        0
      ]
    }
  ]
}
