{
  "accessors": [
    {
      "bufferView": 2,
      "componentType": 5126,
      "count": 416,
      "max": [
        2.0664150714874268,
        0.8110988140106201,
        1.3223479986190796
      ],
      "min": [
        -3.3285813331604004,
        -1.5212229490280151,
        -5.83970308303833
      ],
      "type": "VEC3"
    },
    {
      "bufferView": 2,
      "byteOffset": 4992,
      "componentType": 5126,
      "count": 416,
      "max": [
        0.9985491633415222,
        1.0,
        0.990265429019928
      ],
      "min": [
        -0.9993407130241394,
        -1.0,
        -0.9999791979789734
      ],
      "type": "VEC3"
    },
    {
      "bufferView": 1,
      "componentType": 5126,
      "count": 416,
      "max": [
        0.875,
        1.0
      ],
      "min": [
        0.3749999701976776,
        0.0
      ],
      "type": "VEC2"
    },
    {
      "bufferView": 0,
      "componentType": 5125,
      "count": 618,
      "type": "SCALAR"
    },
    {
      "bufferView": 2,
      "byteOffset": 9984,
      "componentType": 5126,
      "count": 476,
      "max": [
        0.30277109146118164,
        0.5726299285888672,
        0.3419755697250366
      ],
      "min": [
        -0.5352492332458496,
        -0.4971730709075928,
        -0.3592878580093384
      ],
      "type": "VEC3"
    },
    {
      "bufferView": 2,
      "byteOffset": 15696,
      "componentType": 5126,
      "count": 476,
      "max": [
        0.9496389031410217,
        0.8511812090873718,
        0.988228440284729
      ],
      "min": [
        -0.9702440500259399,
        -0.8307911157608032,
        -0.9546374678611755
      ],
      "type": "VEC3"
    },
    {
      "bufferView": 0,
      "byteOffset": 2472,
      "componentType": 5125,
      "count": 738,
      "type": "SCALAR"
    },
    {
      "bufferView": 2,
      "byteOffset": 21408,
      "componentType": 5126,
      "count": 476,
      "max": [
        0.5000715255737305,
        0.5791983604431152,
        0.342090368270874
      ],
      "min": [
        -0.3010721206665039,
        -0.498004674911499,
        -0.359173059463501
      ],
      "type": "VEC3"
    },
    {
      "bufferView": 2,
      "byteOffset": 27120,
      "componentType": 5126,
      "count": 476,
      "max": [
        0.9702441096305847,
        0.8263531923294067,
        0.9882287979125977
      ],
      "min": [
        -0.9496390223503113,
        -0.8307909965515137,
        -0.9546375274658203
      ],
      "type": "VEC3"
    },
    {
      "bufferView": 0,
      "byteOffset": 5424,
      "componentType": 5125,
      "count": 738,
      "type": "SCALAR"
    },
    {
      "bufferView": 2,
      "byteOffset": 32832,
      "componentType": 5126,
      "count": 176,
      "max": [
        0.9999997615814209,
        0.9999998211860657,
        1.0
      ],
      "min": [
        -0.9999996423721313,
        -0.9999995231628418,
        -1.0
      ],
      "type": "VEC3"
    },
    {
      "bufferView": 2,
      "byteOffset": 34944,
      "componentType": 5126,
      "count": 176,
      "max": [
        0.8968089818954468,
        0.896808922290802,
        0.9604224562644958
      ],
      "min": [
        -0.896808922290802,
        -0.8968089818954468,
        -0.9604224562644958
      ],
      "type": "VEC3"
    },
    {
      "bufferView": 1,
      "byteOffset": 3328,
      "componentType": 5126,
      "count": 176,
      "max": [
        1.0,
        1.0
      ],
      "min": [
        0.0,
        0.0
      ],
      "type": "VEC2"
    },
    {
      "bufferView": 0,
      "byteOffset": 8376,
      "componentType": 5125,
      "count": 240,
      "type": "SCALAR"
    },
    {
      "bufferView": 2,
      "byteOffset": 37056,
      "componentType": 5126,
      "count": 12,
      "max": [
        1.0,
        1.0,
        0.0
      ],
      "min": [
        -1.0,
        -1.0,
        0.0
      ],
      "type": "VEC3"
    },
    {
      "bufferView": 2,
      "byteOffset": 37200,
      "componentType": 5126,
      "count": 12,
      "max": [
        0.0,
        0.0,
        1.0
      ],
      "min": [
        0.0,
        0.0,
        1.0
      ],
      "type": "VEC3"
    },
    {
      "bufferView": 1,
      "byteOffset": 4736,
      "componentType": 5126,
      "count": 12,
      "max": [
        0.0,
        0.0
      ],
      "min": [
        0.0,
        0.0
      ],
      "type": "VEC2"
    },
    {
      "bufferView": 0,
      "byteOffset": 9336,
      "componentType": 5125,
      "count": 30,
      "type": "SCALAR"
    },
    {
      "bufferView": 2,
      "byteOffset": 37344,
      "componentType": 5126,
      "count": 12,
      "max": [
        1.0,
        1.0,
        0.0
      ],
      "min": [
        -1.0,
        -1.0,
        0.0
      ],
      "type": "VEC3"
    },
    {
      "bufferView": 2,
      "byteOffset": 37488,
      "componentType": 5126,
      "count": 12,
      "max": [
        0.0,
        0.0,
        1.0
      ],
      "min": [
        0.0,
        0.0,
        1.0
      ],
      "type": "VEC3"
    },
    {
      "bufferView": 1,
      "byteOffset": 4832,
      "componentType": 5126,
      "count": 12,
      "max": [
        0.0,
        0.0
      ],
      "min": [
        0.0,
        0.0
      ],
      "type": "VEC2"
    },
    {
      "bufferView": 0,
      "byteOffset": 9456,
      "componentType": 5125,
      "count": 30,
      "type": "SCALAR"
    },
    {
      "bufferView": 2,
      "byteOffset": 37632,
      "componentType": 5126,
      "count": 128,
      "max": [
        2.3804497718811035,
        1.1728006601333618,
        3.437953233718872
      ],
      "min": [
        -0.8225801587104797,
        -1.1728006601333618,
        -1.9009615182876587
      ],
      "type": "VEC3"
    },
    {
      "bufferView": 2,
      "byteOffset": 39168,
      "componentType": 5126,
      "count": 128,
      "max": [
        0.8950612545013428,
        0.9269086122512817,
        0.873140275478363
      ],
      "min": [
        -0.903714656829834,
        -0.9269086718559265,
        -0.804961085319519
      ],
      "type": "VEC3"
    },
    {
      "bufferView": 1,
      "byteOffset": 4928,
      "componentType": 5126,
      "count": 128,
      "max": [
        1.0,
        1.0
      ],
      "min": [
        0.0,
        0.01000000536441803
      ],
      "type": "VEC2"
    },
    {
      "bufferView": 0,
      "byteOffset": 9576,
      "componentType": 5125,
      "count": 186,
      "type": "SCALAR"
    },
    {
      "bufferView": 2,
      "byteOffset": 40704,
      "componentType": 5126,
      "count": 128,
      "max": [
        2.3804497718811035,
        1.1728006601333618,
        3.437953233718872
      ],
      "min": [
        -0.8225801587104797,
        -1.1728006601333618,
        -1.9009615182876587
      ],
      "type": "VEC3"
    },
    {
      "bufferView": 2,
      "byteOffset": 42240,
      "componentType": 5126,
      "count": 128,
      "max": [
        0.8950612545013428,
        0.9269086122512817,
        0.873140275478363
      ],
      "min": [
        -0.903714656829834,
        -0.9269086718559265,
        -0.804961085319519
      ],
      "type": "VEC3"
    },
    {
      "bufferView": 1,
      "byteOffset": 5952,
      "componentType": 5126,
      "count": 128,
      "max": [
        1.0,
        1.0
      ],
      "min": [
        0.0,
        0.01000000536441803
      ],
      "type": "VEC2"
    },
    {
      "bufferView": 0,
      "byteOffset": 10320,
      "componentType": 5125,
      "count": 186,
      "type": "SCALAR"
    }
  ],
  "asset": {
    "extras": {
      "author": "Diego T. Yamaguchi (https://sketchfab.com/freshlybaked)",
      "license": "CC-BY-4.0 (http://creativecommons.org/licenses/by/4.0/)",
      "source": "https://sketchfab.com/3d-models/ghost-a0f01623a7c1418caaee24fa1c685c5e",
      "title": "Ghost"
    },
    "generator": "Sketchfab-12.65.0",
    "version": "2.0"
  },
  "bufferViews": [
    {
      "buffer": 0,
      "byteLength": 11064,
      "name": "floatBufferViews",
      "target": 34963
    },
    {
      "buffer": 0,
      "byteLength": 6976,
      "byteOffset": 11064,
      "byteStride": 8,
      "name": "floatBufferViews",
      "target": 34962
    },
    {
      "buffer": 0,
      "byteLength": 43776,
      "byteOffset": 18040,
      "byteStride": 12,
      "name": "floatBufferViews",
      "target": 34962
    }
  ],
  "buffers": [
    {
      "byteLength": 61816,
      "uri": "scene.bin"
    }
  ],
  "extensionsRequired": [
    "KHR_materials_pbrSpecularGlossiness"
  ],
  "extensionsUsed": [
    "KHR_materials_pbrSpecularGlossiness"
  ],
  "materials": [
    {
      "doubleSided": true,
      "extensions": {
        "KHR_materials_pbrSpecularGlossiness": {
          "diffuseFactor": [
            0.0,
            0.0,
            0.0,
            1.0
          ],
          "glossinessFactor": 0.219089023,
          "specularFactor": [
            0.0,
            0.0,
            0.0
          ]
        }
      },
      "name": "black"
    },
    {
      "doubleSided": true,
      "extensions": {
        "KHR_materials_pbrSpecularGlossiness": {
          "diffuseFactor": [
            0.0,
            0.0,
            0.0,
            1.0
          ],
          "glossinessFactor": 0.219089023,
          "specularFactor": [
            0.0,
            0.0,
            0.0
          ]
        }
      },
      "name": "black.001"
    },
    {
      "doubleSided": true,
      "emissiveFactor": [
        1.0,
        1.0,
        0.0
      ],
      "extensions": {
        "KHR_materials_pbrSpecularGlossiness": {
          "diffuseFactor": [
            0.8,
            0.8,
            0.8,
            1.0
          ],
          "glossinessFactor": 0.1788854382,
          "specularFactor": [
            0.0,
            0.0,
            0.0
          ]
        }
      },
      "name": "eyes"
    }
  ],
  "meshes": [
    {
      "name": "Cube.001_black_0",
      "primitives": [
        {
          "attributes": {
            "NORMAL": 1,
            "POSITION": 0,
            "TEXCOORD_0": 2
          },
          "indices": 3,
          "material": 0,
          "mode": 4
        }
      ]
    },
    {
      "name": "old_low_poly_mesh_black.001_0",
      "primitives": [
        {
          "attributes": {
            "NORMAL": 5,
            "POSITION": 4
          },
          "indices": 6,
          "material": 1,
          "mode": 4
        }
      ]
    },
    {
      "name": "old_low_poly_mesh.001_black.001_0",
      "primitives": [
        {
          "attributes": {
            "NORMAL": 8,
            "POSITION": 7
          },
          "indices": 9,
          "material": 1,
          "mode": 4
        }
      ]
    },
    {
      "name": "Sphere.001_black_0",
      "primitives": [
        {
          "attributes": {
            "NORMAL": 11,
            "POSITION": 10,
            "TEXCOORD_0": 12
          },
          "indices": 13,
          "material": 0,
          "mode": 4
        }
      ]
    },
    {
      "name": "Circle_eyes_0",
      "primitives": [
        {
          "attributes": {
            "NORMAL": 15,
            "POSITION": 14,
            "TEXCOORD_0": 16
          },
          "indices": 17,
          "material": 2,
          "mode": 4
        }
      ]
    },
    {
      "name": "Circle.001_eyes_0",
      "primitives": [
        {
          "attributes": {
            "NORMAL": 19,
            "POSITION": 18,
            "TEXCOORD_0": 20
          },
          "indices": 21,
          "material": 2,
          "mode": 4
        }
      ]
    },
    {
      "name": "Cylinder_black.001_0",
      "primitives": [
        {
          "attributes": {
            "NORMAL": 23,
            "POSITION": 22,
            "TEXCOORD_0": 24
          },
          "indices": 25,
          "material": 1,
          "mode": 4
        }
      ]
    },
    {
      "name": "Cylinder.001_black.001_0",
      "primitives": [
        {
          "attributes": {
            "NORMAL": 27,
            "POSITION": 26,
            "TEXCOORD_0": 28
          },
          "indices": 29,
          "material": 1,
          "mode": 4
        }
      ]
    }
  ],
  "nodes": [
    {
      "children": [
        1
      ],
      "matrix": [
        1.0,
        0.0,
        0.0,
        0.0,
        0.0,
        2.220446049250313e-16,
        -1.0,
        0.0,
        0.0,
        1.0,
        2.220446049250313e-16,
        0.0,
        0.0,
        0.0,
        0.0,
        1.0
      ],
      "name": "Sketchfab_model"
    },
    {
      "children": [
        2
      ],
      "matrix": [
        1.0,
        0.0,
        0.0,
        0.0,
        0.0,
        0.0,
        1.0,
        0.0,
        0.0,
        -1.0,
        0.0,
        0.0,
        0.0,
        0.0,
        0.0,
        1.0
      ],
      "name": "28df6053916b4aeead11a94411545e32.fbx"
    },
    {
      "children": [
        3,
        5,
        7,
        9,
        11,
        13,
        15,
        17
      ],
      "name": "RootNode"
    },
    {
      "children": [
        4
      ],
      "matrix": [
        48.93184280395508,
        0.0,
        0.0,
        0.0,
        0.0,
        -7.97200907351466e-06,
        -48.93184280395443,
        0.0,
        0.0,
        48.93184280395443,
        -7.97200907351466e-06,
        0.0,
        36.1419792175293,
        311.5353698730469,
        7.438969532813644e-06,
        1.0
      ],
      "name": "Cube.001"
    },
    {
      "mesh": 0,
      "name": "Cube.001_black_0"
    },
    {
      "children": [
        6
      ],
      "matrix": [
        91.50899518089619,
        -31.143064592857506,
        25.616661155346176,
        0.0,
        38.82214417835507,
        50.85780789395105,
        -76.85261542470096,
        0.0,
        10.906187343784657,
        80.27199327279145,
        58.629874412582495,
        0.0,
        135.7447052001953,
        175.5982666015625,
        100.47499084472656,
        1.0
      ],
      "name": "old_low_poly_mesh"
    },
    {
      "mesh": 1,
      "name": "old_low_poly_mesh_black.001_0"
    },
    {
      "children": [
        8
      ],
      "matrix": [
        99.79128927286472,
        -5.049204980372288,
        -4.02543343326147,
        0.0,
        0.7758995043337112,
        71.26185472615349,
        -70.15088054292528,
        0.0,
        6.410659790362633,
        69.97322947346221,
        71.15229491891023,
        0.0,
        -153.1287384033203,
        182.8519287109375,
        86.1065673828125,
        1.0
      ],
      "name": "old_low_poly_mesh.001"
    },
    {
      "mesh": 2,
      "name": "old_low_poly_mesh.001_black.001_0"
    },
    {
      "children": [
        10
      ],
      "matrix": [
        58.544313988278276,
        12.850339541582498,
        1.8836031571952457e-06,
        0.0,
        8.696306296880486e-07,
        4.823805167577996e-06,
        -59.93803024291973,
        0.0,
        -12.850339541582606,
        58.54431398827811,
        4.525195684080429e-06,
        0.0,
        17.010683059692383,
        424.912841796875,
        2.2672231352771632e-05,
        1.0
      ],
      "name": "Sphere.001"
    },
    {
      "mesh": 3,
      "name": "Sphere.001_black_0"
    },
    {
      "children": [
        12
      ],
      "matrix": [
        9.79788907572658,
        2.141323120417513,
        -0.7076603729895206,
        0.0,
        -3.2354157009589333,
        13.546720470938487,
        -3.804562901031414,
        0.0,
        0.09971446846572496,
        2.7404229166986998,
        9.672891847262582,
        0.0,
        36.79191589355469,
        442.73358154296875,
        50.18085861206055,
        1.0
      ],
      "name": "Circle"
    },
    {
      "mesh": 4,
      "name": "Circle_eyes_0"
    },
    {
      "children": [
        14
      ],
      "matrix": [
        -8.637936449967093,
        -3.696092980985824,
        -3.5790541784127523,
        0.0,
        4.005519371431744,
        -13.27068369969282,
        4.0374519008221625,
        0.0,
        -4.323260349089886,
        1.4225836082952745,
        8.96495142659308,
        0.0,
        -9.931792259216309,
        434.3475341796875,
        46.97307205200195,
        1.0
      ],
      "name": "Circle.001"
    },
    {
      "mesh": 5,
      "name": "Circle.001_eyes_0"
    },
    {
      "children": [
        16
      ],
      "matrix": [
        11.439291000366211,
        0.0,
        0.0,
        0.0,
        0.0,
        -1.863697061540526e-06,
        -11.43929100036606,
        0.0,
        0.0,
        11.43929100036606,
        -1.863697061540526e-06,
        0.0,
        46.38140869140625,
        485.63909912109375,
        3.083134288317524e-05,
        1.0
      ],
      "name": "Cylinder"
    },
    {
      "mesh": 6,
      "name": "Cylinder_black.001_0"
    },
    {
      "children": [
        18
      ],
      "matrix": [
        -10.777018998532773,
        -3.8357813125322062,
        6.05753226079102e-06,
        0.0,
        5.996428884309942e-06,
        1.2175475827584066e-06,
        11.439291000364575,
        0.0,
        -3.8357813125323026,
        10.777018998534404,
        8.636423726956697e-07,
        0.0,
        -30.32843780517578,
        469.6741027832031,
        2.8686306905001402e-05,
        1.0
      ],
      "name": "Cylinder.001"
    },
    {
      "mesh": 7,
      "name": "Cylinder.001_black.001_0"
    }
  ],
  "scene": 0,
  "scenes": [
    {
      "name": "Sketchfab_Scene",
      "nodes": [
        0
      ]
    }
  ]
}
