{
  "accessors": [
    {
      "bufferView": 1,
      "componentType": 5126,
      "count": 642,
      "max": [
        1.6766200065612793,
        1.3256399631500244,
        2.10440993309021
      ],
      "min": [
        -6.973710060119629,
        -1.7482600212097168,
        -1.939079999923706
      ],
      "type": "VEC3"
    },
    {
      "bufferView": 1,
      "byteOffset": 7704,
      "componentType": 5126,
      "count": 642,
      "max": [
        1.0,
        1.0,
        1.0
      ],
      "min": [
        -1.0,
        -1.0,
        -1.0
      ],
      "type": "VEC3"
    },
    {
      "bufferView": 0,
      "componentType": 5125,
      "count": 1056,
      "type": "SCALAR"
    },
    {
      "bufferView": 1,
      "byteOffset": 15408,
      "componentType": 5126,
      "count": 577,
      "max": [
        0.2690199911594391,
        -0.9768700003623962,
        0.8837400078773499
      ],
      "min": [
        -0.9042379260063171,
        -1.3376200199127197,
        -0.8727499842643738
      ],
      "type": "VEC3"
    },
    {
      "bufferView": 1,
      "byteOffset": 22332,
      "componentType": 5126,
      "count": 577,
      "max": [
        1.0,
        0.9980255961418152,
        1.0
      ],
      "min": [
        -1.0,
        -0.9980255961418152,
        -1.0
      ],
      "type": "VEC3"
    },
    {
      "bufferView": 0,
      "byteOffset": 4224,
      "componentType": 5125,
      "count": 972,
      "type": "SCALAR"
    },
    {
      "bufferView": 1,
      "byteOffset": 29256,
      "componentType": 5126,
      "count": 316,
      "max": [
        0.9467899799346924,
        -0.9807199835777283,
        0.8531100153923035
      ],
      "min": [
        0.26899203658103943,
        -1.3337700366973877,
        -0.8421099781990051
      ],
      "type": "VEC3"
    },
    {
      "bufferView": 1,
      "byteOffset": 33048,
      "componentType": 5126,
      "count": 316,
      "max": [
        1.0,
        0.9979260563850403,
        0.9937251806259155
      ],
      "min": [
        0.01413994375616312,
        -0.9979260563850403,
        -0.9937251806259155
      ],
      "type": "VEC3"
    },
    {
      "bufferView": 0,
      "byteOffset": 8112,
      "componentType": 5125,
      "count": 468,
      "type": "SCALAR"
    },
    {
      "bufferView": 1,
      "byteOffset": 36840,
      "componentType": 5126,
      "count": 92,
      "max": [
        -0.8397200107574463,
        -1.0200799703598022,
        0.5404499769210815
      ],
      "min": [
        -0.89997798204422,
        -1.294409990310669,
        -0.529449999332428
      ],
      "type": "VEC3"
    },
    {
      "bufferView": 1,
      "byteOffset": 37944,
      "componentType": 5126,
      "count": 92,
      "max": [
        0.0,
        0.9980255961418152,
        1.0
      ],
      "min": [
        -1.0,
        -0.9980255961418152,
        -1.0
      ],
      "type": "VEC3"
    },
    {
      "bufferView": 0,
      "byteOffset": 9984,
      "componentType": 5125,
      "count": 144,
      "type": "SCALAR"
    },
    {
      "bufferView": 1,
      "byteOffset": 39048,
      "componentType": 5126,
      "count": 998,
      "max": [
        2.436609983444214,
        -1.0715199708938599,
        0.4697200059890747
      ],
      "min": [
        -32.213260650634766,
        -1.5836299657821655,
        -19.927440643310547
      ],
      "type": "VEC3"
    },
    {
      "bufferView": 1,
      "byteOffset": 51024,
      "componentType": 5126,
      "count": 998,
      "max": [
        1.0,
        1.0,
        1.0
      ],
      "min": [
        -1.0,
        -1.0,
        -1.0
      ],
      "type": "VEC3"
    },
    {
      "bufferView": 0,
      "byteOffset": 10560,
      "componentType": 5125,
      "count": 1914,
      "type": "SCALAR"
    },
    {
      "bufferView": 1,
      "byteOffset": 63000,
      "componentType": 5126,
      "count": 207,
      "max": [
        2.0743699073791504,
        -0.6327999830245972,
        2.137660026550293
      ],
      "min": [
        -1.3151999711990356,
        -1.170259952545166,
        -1.0318599939346313
      ],
      "type": "VEC3"
    },
    {
      "bufferView": 1,
      "byteOffset": 65484,
      "componentType": 5126,
      "count": 207,
      "max": [
        1.0,
        1.0,
        1.0
      ],
      "min": [
        -1.0,
        -1.0,
        -1.0
      ],
      "type": "VEC3"
    },
    {
      "bufferView": 0,
      "byteOffset": 18216,
      "componentType": 5125,
      "count": 426,
      "type": "SCALAR"
    },
    {
      "bufferView": 1,
      "byteOffset": 67968,
      "componentType": 5126,
      "count": 1745,
      "max": [
        7.44651985168457,
        -0.4551500082015991,
        4.177609920501709
      ],
      "min": [
        -15.567259788513184,
        -1.6419399976730347,
        -7.418879985809326
      ],
      "type": "VEC3"
    },
    {
      "bufferView": 1,
      "byteOffset": 88908,
      "componentType": 5126,
      "count": 1745,
      "max": [
        1.0,
        1.0,
        1.0
      ],
      "min": [
        -1.0,
        -1.0,
        -1.0
      ],
      "type": "VEC3"
    },
    {
      "bufferView": 0,
      "byteOffset": 19920,
      "componentType": 5125,
      "count": 3309,
      "type": "SCALAR"
    },
    {
      "bufferView": 1,
      "byteOffset": 109848,
      "componentType": 5126,
      "count": 2125,
      "max": [
        -3.9998300075531006,
        -1.18517005443573,
        1.5044100284576416
      ],
      "min": [
        -14.670370101928711,
        -1.5604300498962402,
        -9.641500473022461
      ],
      "type": "VEC3"
    },
    {
      "bufferView": 1,
      "byteOffset": 135348,
      "componentType": 5126,
      "count": 2125,
      "max": [
        1.0,
        1.0,
        1.0
      ],
      "min": [
        -1.0,
        -1.0,
        -1.0
      ],
      "type": "VEC3"
    },
    {
      "bufferView": 0,
      "byteOffset": 33156,
      "componentType": 5125,
      "count": 2724,
      "type": "SCALAR"
    },
    {
      "bufferView": 1,
      "byteOffset": 160848,
      "componentType": 5126,
      "count": 144,
      "max": [
        11.669130325317383,
        -1.2775299549102783,
        0.8565899729728699
      ],
      "min": [
        1.6735199689865112,
        -1.4441100358963013,
        -0.9080100059509277
      ],
      "type": "VEC3"
    },
    {
      "bufferView": 1,
      "byteOffset": 162576,
      "componentType": 5126,
      "count": 144,
      "max": [
        1.0,
        1.0,
        0.18552008271217346
      ],
      "min": [
        -0.998051643371582,
        -1.0,
        -0.18552008271217346
      ],
      "type": "VEC3"
    },
    {
      "bufferView": 0,
      "byteOffset": 44052,
      "componentType": 5125,
      "count": 216,
      "type": "SCALAR"
    },
    {
      "bufferView": 2,
      "componentType": 5126,
      "count": 1,
      "max": [
        1.0,
        0.0,
        0.0,
        0.0,
        0.0,
        1.0,
        0.0,
        0.0,
        0.0,
        0.0,
        1.0,
        0.0,
        0.0,
        0.0,
        0.0,
        1.0
      ],
      "min": [
        1.0,
        0.0,
        0.0,
        0.0,
        0.0,
        1.0,
        0.0,
        0.0,
        0.0,
        0.0,
        1.0,
        0.0,
        0.0,
        0.0,
        0.0,
        1.0
      ],
      "type": "MAT4"
    }
  ],
  "asset": {
    "extras": {
      "author": "TastyTony (https://sketchfab.com/TastyTony)",
      "license": "CC-BY-4.0 (http://creativecommons.org/licenses/by/4.0/)",
      "source": "https://sketchfab.com/3d-models/low-poly-sten-gun-51a9f6bc2cff4308af41bdde7c83d446",
      "title": "Low-Poly Sten Gun"
    },
    "generator": "Sketchfab-15.10.0",
    "version": "2.0"
  },
  "bufferViews": [
    {
      "buffer": 0,
      "byteLength": 44916,
      "name": "floatBufferViews",
      "target": 34963
    },
    {
      "buffer": 0,
      "byteLength": 164304,
      "byteOffset": 44916,
      "byteStride": 12,
      "name": "floatBufferViews",
      "target": 34962
    },
    {
      "buffer": 0,
      "byteLength": 64,
      "byteOffset": 209220,
      "name": "floatBufferViews"
    }
  ],
  "buffers": [
    {
      "byteLength": 209284,
      "uri": "scene.bin"
    }
  ],
  "extensionsRequired": [
    "KHR_materials_pbrSpecularGlossiness"
  ],
  "extensionsUsed": [
    "KHR_materials_pbrSpecularGlossiness"
  ],
  "materials": [
    {
      "doubleSided": true,
      "extensions": {
        "KHR_materials_pbrSpecularGlossiness": {
          "diffuseFactor": [
            0.1968368902,
            0.1968368902,
            0.1968368902,
            1.0
          ],
          "glossinessFactor": 0.0,
          "specularFactor": [
            0.0443978659,
            0.0443978659,
            0.0443978659
          ]
        }
      },
      "name": "Material.003"
    },
    {
      "doubleSided": true,
      "extensions": {
        "KHR_materials_pbrSpecularGlossiness": {
          "diffuseFactor": [
            1.0,
            1.0,
            1.0,
            1.0
          ],
          "glossinessFactor": 1.0,
          "specularFactor": [
            1.0,
            1.0,
            1.0
          ]
        }
      },
      "name": "Material.007"
    },
    {
      "doubleSided": true,
      "extensions": {
        "KHR_materials_pbrSpecularGlossiness": {
          "diffuseFactor": [
            1.0,
            1.0,
            1.0,
            1.0
          ],
          "glossinessFactor": 1.0,
          "specularFactor": [
            1.0,
            1.0,
            1.0
          ]
        }
      },
      "name": "Material.006"
    },
    {
      "doubleSided": true,
      "extensions": {
        "KHR_materials_pbrSpecularGlossiness": {
          "diffuseFactor": [
            1.0,
            1.0,
            1.0,
            1.0
          ],
          "glossinessFactor": 1.0,
          "specularFactor": [
            1.0,
            1.0,
            1.0
          ]
        }
      },
      "name": "Material.000"
    },
    {
      "doubleSided": true,
      "extensions": {
        "KHR_materials_pbrSpecularGlossiness": {
          "diffuseFactor": [
            0.1358612805,
            0.1358612805,
            0.1358612805,
            1.0
          ],
          "glossinessFactor": 0.0,
          "specularFactor": [
            0.0,
            0.0,
            0.0
          ]
        }
      },
      "name": "Material.002"
    },
    {
      "doubleSided": true,
      "extensions": {
        "KHR_materials_pbrSpecularGlossiness": {
          "diffuseFactor": [
            0.2029344512,
            0.2029344512,
            0.2029344512,
            1.0
          ],
          "glossinessFactor": 0.0,
          "specularFactor": [
            0.0,
            0.0,
            0.0
          ]
        }
      },
      "name": "Material.004"
    },
    {
      "doubleSided": true,
      "extensions": {
        "KHR_materials_pbrSpecularGlossiness": {
          "diffuseFactor": [
            0.1358612805,
            0.1358612805,
            0.1358612805,
            1.0
          ],
          "glossinessFactor": 0.0,
          "specularFactor": [
            0.0,
            0.0,
            0.0
          ]
        }
      },
      "name": "body"
    },
    {
      "doubleSided": true,
      "extensions": {
        "KHR_materials_pbrSpecularGlossiness": {
          "diffuseFactor": [
            0.251714939,
            0.251714939,
            0.251714939,
            1.0
          ],
          "glossinessFactor": 0.0,
          "specularFactor": [
            0.0,
            0.0,
            0.0
          ]
        }
      },
      "name": "Material.005"
    },
    {
      "doubleSided": true,
      "extensions": {
        "KHR_materials_pbrSpecularGlossiness": {
          "diffuseFactor": [
            0.2151295732,
            0.2151295732,
            0.2151295732,
            1.0
          ],
          "glossinessFactor": 0.0,
          "specularFactor": [
            0.0,
            0.0,
            0.0
          ]
        }
      },
      "name": "Material.001"
    }
  ],
  "meshes": [
    {
      "name": "Cube.007_0",
      "primitives": [
        {
          "attributes": {
            "NORMAL": 1,
            "POSITION": 0
          },
          "indices": 2,
          "material": 0,
          "mode": 4
        }
      ]
    },
    {
      "name": "Cube.007_1",
      "primitives": [
        {
          "attributes": {
            "NORMAL": 4,
            "POSITION": 3
          },
          "indices": 5,
          "material": 1,
          "mode": 4
        }
      ]
    },
    {
      "name": "Cube.007_2",
      "primitives": [
        {
          "attributes": {
            "NORMAL": 7,
            "POSITION": 6
          },
          "indices": 8,
          "material": 2,
          "mode": 4
        }
      ]
    },
    {
      "name": "Cube.007_3",
      "primitives": [
        {
          "attributes": {
            "NORMAL": 10,
            "POSITION": 9
          },
          "indices": 11,
          "material": 3,
          "mode": 4
        }
      ]
    },
    {
      "name": "Cube.007_4",
      "primitives": [
        {
          "attributes": {
            "NORMAL": 13,
            "POSITION": 12
          },
          "indices": 14,
          "material": 4,
          "mode": 4
        }
      ]
    },
    {
      "name": "Cube.007_5",
      "primitives": [
        {
          "attributes": {
            "NORMAL": 16,
            "POSITION": 15
          },
          "indices": 17,
          "material": 5,
          "mode": 4
        }
      ]
    },
    {
      "name": "Cube.007_6",
      "primitives": [
        {
          "attributes": {
            "NORMAL": 19,
            "POSITION": 18
          },
          "indices": 20,
          "material": 6,
          "mode": 4
        }
      ]
    },
    {
      "name": "Cube.007_7",
      "primitives": [
        {
          "attributes": {
            "NORMAL": 22,
            "POSITION": 21
          },
          "indices": 23,
          "material": 7,
          "mode": 4
        }
      ]
    },
    {
      "name": "Cube.007_8",
      "primitives": [
        {
          "attributes": {
            "NORMAL": 25,
            "POSITION": 24
          },
          "indices": 26,
          "material": 8,
          "mode": 4
        }
      ]
    }
  ],
  "nodes": [
    {
      "children": [
        1
      ],
      "matrix": [
        0.2681536078453064,
        0.0,
        0.0,
        0.0,
        0.0,
        5.954206191323283e-17,
        -0.2681536078453064,
        0.0,
        0.0,
        0.2681536078453064,
        5.954206191323283e-17,
        0.0,
        0.0,
        0.0,
        0.0,
        1.0
      ],
      "name": "Sketchfab_model"
    },
    {
      "children": [
        2,
        4
      ],
      "name": "Root"
    },
    {
      "children": [
        3
      ],
      "matrix": [
        -0.97412,
        0.07164000000000001,
        0.21436000000000002,
        0.0,
        -0.22569000000000003,
        -0.35951000000000005,
        -0.90544,
        0.0,
        0.012200000000000003,
        -0.93039,
        0.3663700000000001,
        0.0,
        0.09798000000000003,
        -20.37171,
        7.40545,
        1.0
      ],
      "name": "Lamp"
    },
    {
      "name": "Lamp"
    },
    {
      "children": [
        5,
        6
      ],
      "matrix": [
        0.0,
        0.0,
        -0.6095,
        0.0,
        -0.0,
        0.6095,
        -0.0,
        0.0,
        0.6095,
        0.0,
        0.0,
        0.0,
        3.10188,
        -0.0,
        0.8430200000000001,
        1.0
      ],
      "name": "Armature"
    },
    {
      "name": "Armature_rootJoint"
    },
    {
      "children": [
        7,
        8,
        9,
        10,
        11,
        12,
        13,
        14,
        15
      ],
      "matrix": [
        0.0,
        -0.0,
        0.35776,
        0.0,
        -0.0,
        1.64069,
        0.0,
        0.0,
        -0.17884000000000003,
        -0.0,
        0.0,
        0.0,
        -0.05621000000000001,
        2.2326799999999998,
        -1.46115,
        1.0
      ],
      "name": "Cube.007"
    },
    {
      "mesh": 0,
      "name": "Cube.007_0"
    },
    {
      "mesh": 1,
      "name": "Cube.007_1"
    },
    {
      "mesh": 2,
      "name": "Cube.007_2"
    },
    {
      "mesh": 3,
      "name": "Cube.007_3"
    },
    {
      "mesh": 4,
      "name": "Cube.007_4"
    },
    {
      "mesh": 5,
      "name": "Cube.007_5"
    },
    {
      "mesh": 6,
      "name": "Cube.007_6"
    },
    {
      "mesh": 7,
      "name": "Cube.007_7"
    },
    {
      "mesh": 8,
      "name": "Cube.007_8"
    }
  ],
  "scene": 0,
  "scenes": [
    {
      "name": "Sketchfab_Scene",
      "nodes": [
        0
      ]
    }
  ],
  "skins": [
    {
      "inverseBindMatrices": 27,
      "joints": [
        5
      ],
      "skeleton": 5
    }
  ]
}
