{
	"asset":{
		"generator":"Khronos glTF Blender I/O v3.6.27",
		"version":"2.0"
	},
	"extensionsUsed":[
		"KHR_materials_specular",
		"KHR_materials_ior"
	],
	"scene":0,
	"scenes":[
		{
			"name":"Scene",
			"nodes":[
				0
			]
		}
	],
	"nodes":[
		{
			"mesh":0,
			"name":"chair",
			"scale":[
				0.02539999969303608,
				0.02539999969303608,
				0.02539999969303608
			]
		}
	],
	"materials":[
		{
			"doubleSided":true,
			"extensions":{
				"KHR_materials_specular":{
					"specularColorFactor":[
						2.371357614441398,
						2.371357614441398,
						2.371357614441398
					]
				},
				"KHR_materials_ior":{
					"ior":1.4500000476837158
				}
			},
			"name":"chair",
			"pbrMetallicRoughness":{
				"roughnessFactor":0.8964735269546509
			}
		}
	],
	"meshes":[
		{
			"name":"Mesh.001",
			"primitives":[
				{
					"attributes":{
						"COLOR_0":0,
						"POSITION":1,
						"NORMAL":2
					},
					"indices":3,
					"material":0
				}
			]
		}
	],
	"accessors":[
		{
			"bufferView":0,
			"componentType":5123,
			"count":1713,
			"normalized":true,
			"type":"VEC4"
		},
		{
			"bufferView":1,
			"componentType":5126,
			"count":1713,
			"max":[
				20.80863380432129,
				108.45991516113281,
				21.672515869140625
			],
			"min":[
				-20.80863380432129,
				-0.0045013427734375,
				-24.562894821166992
			],
			"type":"VEC3"
		},
		{
			"bufferView":2,
			"componentType":5126,
			"count":1713,
			"type":"VEC3"
		},
		{
			"bufferView":3,
			"componentType":5123,
			"count":2688,
			"type":"SCALAR"
		}
	],
	"bufferViews":[
		{
			"buffer":0,
			"byteLength":13704,
			"byteOffset":0,
			"target":34962
		},
		{
			"buffer":0,
			"byteLength":20556,
			"byteOffset":13704,
			"target":34962
		},
		{
			"buffer":0,
			"byteLength":20556,
			"byteOffset":34260,
			"target":34962
		},
		{
			"buffer":0,
			"byteLength":5376,
			"byteOffset":54816,
			"target":34963
		}
	],
	"buffers":[
		{
			"byteLength":60192,
			"uri":"chair.bin"
		}
	]
}
